<?xml version="1.0" encoding="UTF-8"?><svg xmlns="http://www.w3.org/2000/svg" xmlns:xlink="http://www.w3.org/1999/xlink" contentScriptType="text/ecmascript" width="768" zoomAndPan="magnify" contentStyleType="text/css" viewBox="0 0 768 767.999994" height="767.999994" preserveAspectRatio="xMidYMid meet" version="1.0"><defs><clipPath id="clip-0"><path d="M 44.492188 658 L 723 658 L 723 747 L 44.492188 747 Z M 44.492188 658 " clip-rule="nonzero"/></clipPath><clipPath id="clip-1"><path d="M 45 15 L 723.242188 15 L 723.242188 262 L 45 262 Z M 45 15 " clip-rule="nonzero"/></clipPath></defs><g clip-path="url(#clip-0)"><path fill="#ff6f00" d="M 695.863281 658.578125 L 72.882812 658.578125 L 72.882812 695.011719 L 44.566406 695.011719 L 44.566406 747.640625 L 722.15625 747.640625 L 722.15625 695.011719 L 695.863281 695.011719 L 695.863281 658.578125 " fill-opacity="1" fill-rule="nonzero"/></g><g clip-path="url(#clip-1)"><path fill="#ff6f00" d="M 383.359375 14.890625 L 45.578125 172.777344 L 45.578125 225.40625 L 72.882812 225.40625 L 72.882812 261.839844 L 695.863281 261.839844 L 695.863281 225.40625 L 723.164062 225.40625 L 723.164062 172.777344 L 383.359375 14.890625 " fill-opacity="1" fill-rule="nonzero"/></g><path fill="#ff6f00" d="M 99.851562 583.683594 L 99.851562 644.410156 L 249.527344 644.410156 L 249.527344 583.683594 L 223.234375 583.683594 L 223.234375 318.515625 L 249.527344 318.515625 L 249.527344 284.105469 L 99.851562 284.105469 L 99.851562 318.515625 L 126.144531 318.515625 L 126.144531 583.683594 L 99.851562 583.683594 " fill-opacity="1" fill-rule="nonzero"/><path fill="#ff6f00" d="M 308.523438 583.683594 L 308.523438 644.410156 L 458.199219 644.410156 L 458.199219 583.683594 L 431.902344 583.683594 L 431.902344 318.515625 L 458.199219 318.515625 L 458.199219 284.105469 L 308.523438 284.105469 L 308.523438 318.515625 L 334.816406 318.515625 L 334.816406 583.683594 L 308.523438 583.683594 " fill-opacity="1" fill-rule="nonzero"/><path fill="#ff6f00" d="M 518.882812 583.683594 L 518.882812 644.410156 L 668.554688 644.410156 L 668.554688 583.683594 L 642.261719 583.683594 L 642.261719 318.515625 L 668.554688 318.515625 L 668.554688 284.105469 L 518.882812 284.105469 L 518.882812 318.515625 L 545.175781 318.515625 L 545.175781 583.683594 L 518.882812 583.683594 " fill-opacity="1" fill-rule="nonzero"/></svg>