<?xml version="1.0" encoding="UTF-8"?><svg xmlns="http://www.w3.org/2000/svg" xmlns:xlink="http://www.w3.org/1999/xlink" contentScriptType="text/ecmascript" width="768" zoomAndPan="magnify" contentStyleType="text/css" viewBox="0 0 768 767.999994" height="767.999994" preserveAspectRatio="xMidYMid meet" version="1.0"><defs><clipPath id="clip-0"><path d="M 18.113281 25.949219 L 750.113281 25.949219 L 750.113281 691.199219 L 18.113281 691.199219 Z M 18.113281 25.949219 " clip-rule="nonzero"/></clipPath></defs><g clip-path="url(#clip-0)"><path fill="#666666" d="M 650.292969 159 L 583.75 159 L 583.75 125.738281 C 583.75 124.105469 583.707031 122.472656 583.628906 120.84375 C 583.546875 119.210938 583.429688 117.585938 583.269531 115.957031 C 583.109375 114.332031 582.90625 112.714844 582.667969 111.097656 C 582.429688 109.484375 582.148438 107.875 581.832031 106.273438 C 581.511719 104.671875 581.152344 103.078125 580.757812 101.492188 C 580.359375 99.910156 579.925781 98.335938 579.449219 96.773438 C 578.976562 95.210938 578.464844 93.660156 577.914062 92.121094 C 577.363281 90.585938 576.773438 89.0625 576.148438 87.554688 C 575.523438 86.042969 574.863281 84.550781 574.164062 83.074219 C 573.464844 81.597656 572.730469 80.140625 571.960938 78.699219 C 571.191406 77.261719 570.386719 75.839844 569.546875 74.4375 C 568.707031 73.039062 567.832031 71.660156 566.925781 70.300781 C 566.019531 68.945312 565.078125 67.609375 564.105469 66.296875 C 563.132812 64.984375 562.128906 63.699219 561.089844 62.4375 C 560.054688 61.171875 558.988281 59.9375 557.890625 58.726562 C 556.792969 57.515625 555.667969 56.335938 554.511719 55.179688 C 553.355469 54.023438 552.175781 52.898438 550.964844 51.804688 C 549.753906 50.707031 548.515625 49.640625 547.253906 48.605469 C 545.992188 47.566406 544.703125 46.5625 543.390625 45.589844 C 542.078125 44.617188 540.746094 43.675781 539.386719 42.769531 C 538.027344 41.863281 536.648438 40.988281 535.246094 40.148438 C 533.847656 39.308594 532.425781 38.503906 530.984375 37.734375 C 529.542969 36.964844 528.085938 36.230469 526.609375 35.535156 C 525.132812 34.835938 523.636719 34.175781 522.128906 33.550781 C 520.621094 32.925781 519.097656 32.335938 517.558594 31.785156 C 516.019531 31.234375 514.46875 30.722656 512.90625 30.25 C 511.34375 29.777344 509.769531 29.339844 508.183594 28.945312 C 506.597656 28.546875 505.007812 28.1875 503.402344 27.871094 C 501.800781 27.550781 500.191406 27.273438 498.578125 27.035156 C 496.960938 26.792969 495.339844 26.59375 493.714844 26.433594 C 492.089844 26.273438 490.460938 26.152344 488.828125 26.074219 C 487.195312 25.992188 485.5625 25.953125 483.929688 25.953125 L 284.292969 25.953125 C 282.660156 25.953125 281.027344 25.992188 279.394531 26.074219 C 277.765625 26.152344 276.136719 26.273438 274.511719 26.433594 C 272.882812 26.59375 271.261719 26.792969 269.648438 27.035156 C 268.03125 27.273438 266.421875 27.550781 264.820312 27.871094 C 263.21875 28.1875 261.625 28.546875 260.039062 28.945312 C 258.457031 29.339844 256.882812 29.777344 255.316406 30.25 C 253.753906 30.722656 252.203125 31.234375 250.667969 31.785156 C 249.128906 32.335938 247.605469 32.925781 246.09375 33.550781 C 244.585938 34.175781 243.09375 34.835938 241.617188 35.535156 C 240.140625 36.230469 238.679688 36.964844 237.238281 37.734375 C 235.800781 38.503906 234.378906 39.308594 232.976562 40.148438 C 231.574219 40.988281 230.195312 41.863281 228.835938 42.769531 C 227.480469 43.675781 226.144531 44.617188 224.832031 45.589844 C 223.519531 46.5625 222.234375 47.566406 220.96875 48.605469 C 219.707031 49.640625 218.46875 50.707031 217.261719 51.804688 C 216.050781 52.898438 214.867188 54.023438 213.710938 55.179688 C 212.554688 56.335938 211.429688 57.515625 210.332031 58.726562 C 209.234375 59.9375 208.167969 61.171875 207.132812 62.4375 C 206.097656 63.699219 205.09375 64.984375 204.117188 66.296875 C 203.144531 67.609375 202.207031 68.945312 201.296875 70.300781 C 200.390625 71.660156 199.515625 73.039062 198.675781 74.4375 C 197.835938 75.839844 197.03125 77.261719 196.261719 78.699219 C 195.492188 80.140625 194.757812 81.597656 194.058594 83.074219 C 193.359375 84.550781 192.699219 86.042969 192.074219 87.554688 C 191.449219 89.0625 190.859375 90.585938 190.3125 92.121094 C 189.761719 93.660156 189.246094 95.210938 188.773438 96.773438 C 188.300781 98.335938 187.863281 99.910156 187.46875 101.492188 C 187.070312 103.078125 186.710938 104.671875 186.394531 106.273438 C 186.074219 107.875 185.796875 109.484375 185.554688 111.097656 C 185.316406 112.714844 185.117188 114.332031 184.957031 115.957031 C 184.796875 117.585938 184.675781 119.210938 184.597656 120.84375 C 184.515625 122.472656 184.476562 124.105469 184.476562 125.738281 L 184.476562 159 L 117.929688 159 C 116.296875 159 114.664062 159.042969 113.03125 159.121094 C 111.402344 159.203125 109.773438 159.320312 108.144531 159.480469 C 106.519531 159.640625 104.898438 159.84375 103.285156 160.082031 C 101.667969 160.320312 100.058594 160.601562 98.457031 160.917969 C 96.855469 161.238281 95.261719 161.59375 93.675781 161.992188 C 92.089844 162.390625 90.519531 162.824219 88.953125 163.296875 C 87.390625 163.773438 85.839844 164.285156 84.300781 164.835938 C 82.765625 165.386719 81.242188 165.972656 79.730469 166.597656 C 78.222656 167.222656 76.730469 167.882812 75.253906 168.582031 C 73.777344 169.28125 72.316406 170.015625 70.875 170.785156 C 69.433594 171.554688 68.015625 172.359375 66.613281 173.199219 C 65.210938 174.039062 63.832031 174.910156 62.472656 175.820312 C 61.117188 176.726562 59.78125 177.664062 58.46875 178.640625 C 57.15625 179.613281 55.867188 180.617188 54.605469 181.652344 C 53.34375 182.6875 52.105469 183.753906 50.894531 184.851562 C 49.6875 185.949219 48.503906 187.074219 47.347656 188.226562 C 46.191406 189.382812 45.066406 190.566406 43.96875 191.777344 C 42.871094 192.984375 41.804688 194.222656 40.769531 195.484375 C 39.734375 196.746094 38.730469 198.035156 37.753906 199.34375 C 36.78125 200.65625 35.84375 201.992188 34.933594 203.347656 C 34.027344 204.707031 33.152344 206.085938 32.3125 207.488281 C 31.472656 208.886719 30.667969 210.308594 29.898438 211.75 C 29.128906 213.1875 28.394531 214.648438 27.695312 216.125 C 26.996094 217.601562 26.335938 219.09375 25.710938 220.601562 C 25.085938 222.109375 24.496094 223.632812 23.945312 225.171875 C 23.398438 226.707031 22.882812 228.257812 22.410156 229.820312 C 21.9375 231.382812 21.5 232.957031 21.101562 234.542969 C 20.707031 236.125 20.347656 237.71875 20.03125 239.320312 C 19.710938 240.921875 19.433594 242.53125 19.191406 244.144531 C 18.953125 245.761719 18.753906 247.382812 18.59375 249.007812 C 18.433594 250.632812 18.3125 252.261719 18.230469 253.890625 C 18.152344 255.523438 18.113281 257.15625 18.113281 258.789062 L 18.113281 325.3125 L 350.839844 325.3125 L 350.839844 292.050781 L 417.382812 292.050781 L 417.382812 325.3125 L 750.113281 325.3125 L 750.113281 258.789062 C 750.113281 257.15625 750.070312 255.523438 749.992188 253.890625 C 749.910156 252.261719 749.792969 250.632812 749.632812 249.007812 C 749.472656 247.382812 749.269531 245.761719 749.03125 244.144531 C 748.792969 242.53125 748.511719 240.921875 748.195312 239.320312 C 747.875 237.71875 747.515625 236.125 747.121094 234.542969 C 746.722656 232.957031 746.289062 231.382812 745.8125 229.820312 C 745.339844 228.257812 744.828125 226.707031 744.277344 225.171875 C 743.726562 223.632812 743.140625 222.109375 742.515625 220.601562 C 741.886719 219.09375 741.226562 217.601562 740.527344 216.125 C 739.828125 214.648438 739.09375 213.1875 738.324219 211.75 C 737.554688 210.308594 736.75 208.886719 735.910156 207.488281 C 735.070312 206.085938 734.195312 204.707031 733.289062 203.347656 C 732.382812 201.992188 731.441406 200.65625 730.46875 199.34375 C 729.496094 198.035156 728.492188 196.746094 727.453125 195.484375 C 726.417969 194.222656 725.351562 192.984375 724.253906 191.777344 C 723.15625 190.566406 722.03125 189.382812 720.875 188.226562 C 719.722656 187.074219 718.539062 185.949219 717.328125 184.851562 C 716.117188 183.753906 714.878906 182.6875 713.617188 181.652344 C 712.355469 180.617188 711.066406 179.613281 709.753906 178.640625 C 708.441406 177.664062 707.109375 176.726562 705.75 175.820312 C 704.390625 174.910156 703.011719 174.039062 701.609375 173.199219 C 700.210938 172.359375 698.789062 171.554688 697.347656 170.785156 C 695.90625 170.015625 694.449219 169.28125 692.972656 168.582031 C 691.496094 167.882812 690 167.222656 688.492188 166.597656 C 686.984375 165.972656 685.460938 165.386719 683.921875 164.835938 C 682.382812 164.285156 680.832031 163.773438 679.269531 163.296875 C 677.707031 162.824219 676.132812 162.390625 674.546875 161.992188 C 672.964844 161.59375 671.371094 161.238281 669.765625 160.917969 C 668.164062 160.601562 666.554688 160.320312 664.941406 160.082031 C 663.324219 159.84375 661.703125 159.640625 660.078125 159.480469 C 658.453125 159.320312 656.824219 159.203125 655.191406 159.121094 C 653.558594 159.042969 651.925781 159 650.292969 159 Z M 251.019531 125.738281 C 251.019531 124.648438 251.074219 123.5625 251.179688 122.480469 C 251.289062 121.394531 251.449219 120.320312 251.660156 119.25 C 251.871094 118.183594 252.136719 117.125 252.453125 116.085938 C 252.769531 115.042969 253.136719 114.015625 253.554688 113.011719 C 253.972656 112.003906 254.4375 111.019531 254.949219 110.058594 C 255.464844 109.097656 256.023438 108.164062 256.628906 107.261719 C 257.234375 106.355469 257.882812 105.480469 258.574219 104.636719 C 259.265625 103.796875 259.996094 102.988281 260.765625 102.21875 C 261.535156 101.449219 262.34375 100.71875 263.1875 100.027344 C 264.027344 99.335938 264.902344 98.6875 265.808594 98.082031 C 266.714844 97.476562 267.648438 96.917969 268.609375 96.40625 C 269.570312 95.890625 270.554688 95.425781 271.5625 95.007812 C 272.566406 94.59375 273.59375 94.226562 274.636719 93.910156 C 275.679688 93.59375 276.734375 93.328125 277.800781 93.117188 C 278.871094 92.902344 279.949219 92.746094 281.03125 92.636719 C 282.117188 92.53125 283.203125 92.476562 284.292969 92.476562 L 483.929688 92.476562 C 485.019531 92.476562 486.105469 92.53125 487.191406 92.636719 C 488.277344 92.746094 489.351562 92.902344 490.421875 93.117188 C 491.488281 93.328125 492.546875 93.59375 493.589844 93.910156 C 494.632812 94.226562 495.65625 94.59375 496.664062 95.007812 C 497.667969 95.425781 498.652344 95.890625 499.613281 96.40625 C 500.574219 96.917969 501.507812 97.476562 502.414062 98.082031 C 503.320312 98.6875 504.195312 99.335938 505.039062 100.027344 C 505.878906 100.71875 506.6875 101.449219 507.457031 102.21875 C 508.226562 102.988281 508.960938 103.796875 509.648438 104.636719 C 510.339844 105.480469 510.988281 106.355469 511.59375 107.261719 C 512.199219 108.164062 512.761719 109.097656 513.273438 110.058594 C 513.789062 111.019531 514.253906 112.003906 514.671875 113.011719 C 515.085938 114.015625 515.453125 115.042969 515.769531 116.085938 C 516.085938 117.125 516.351562 118.183594 516.5625 119.25 C 516.777344 120.320312 516.9375 121.394531 517.042969 122.480469 C 517.148438 123.5625 517.203125 124.648438 517.203125 125.738281 L 517.203125 159 L 251.019531 159 Z M 417.382812 391.835938 L 750.113281 391.835938 L 750.113281 591.410156 C 750.113281 593.042969 750.070312 594.671875 749.992188 596.304688 C 749.910156 597.9375 749.792969 599.5625 749.632812 601.1875 C 749.472656 602.816406 749.269531 604.433594 749.03125 606.050781 C 748.792969 607.664062 748.511719 609.273438 748.195312 610.875 C 747.875 612.476562 747.515625 614.070312 747.121094 615.65625 C 746.722656 617.238281 746.289062 618.8125 745.8125 620.375 C 745.339844 621.9375 744.828125 623.488281 744.277344 625.027344 C 743.726562 626.5625 743.140625 628.085938 742.515625 629.59375 C 741.886719 631.105469 741.226562 632.597656 740.527344 634.074219 C 739.828125 635.546875 739.09375 637.007812 738.324219 638.449219 C 737.554688 639.886719 736.75 641.308594 735.910156 642.707031 C 735.070312 644.109375 734.195312 645.488281 733.289062 646.847656 C 732.382812 648.203125 731.441406 649.539062 730.46875 650.851562 C 729.496094 652.164062 728.492188 653.449219 727.453125 654.710938 C 726.417969 655.976562 725.351562 657.210938 724.253906 658.421875 C 723.15625 659.632812 722.03125 660.8125 720.875 661.96875 C 719.722656 663.121094 718.539062 664.25 717.328125 665.34375 C 716.117188 666.441406 714.878906 667.507812 713.617188 668.542969 C 712.355469 669.582031 711.066406 670.585938 709.753906 671.558594 C 708.441406 672.53125 707.109375 673.46875 705.75 674.378906 C 704.390625 675.285156 703.011719 676.160156 701.609375 676.996094 C 700.210938 677.835938 698.789062 678.640625 697.347656 679.410156 C 695.90625 680.183594 694.449219 680.914062 692.972656 681.613281 C 691.496094 682.3125 690 682.972656 688.492188 683.597656 C 686.984375 684.222656 685.460938 684.8125 683.921875 685.363281 C 682.382812 685.910156 680.832031 686.421875 679.269531 686.898438 C 677.707031 687.371094 676.132812 687.808594 674.546875 688.203125 C 672.964844 688.601562 671.371094 688.957031 669.765625 689.277344 C 668.164062 689.597656 666.554688 689.875 664.941406 690.113281 C 663.324219 690.355469 661.703125 690.554688 660.078125 690.714844 C 658.453125 690.875 656.824219 690.996094 655.191406 691.074219 C 653.558594 691.15625 651.925781 691.195312 650.292969 691.195312 L 117.929688 691.195312 C 116.296875 691.195312 114.664062 691.15625 113.03125 691.074219 C 111.402344 690.996094 109.773438 690.875 108.144531 690.714844 C 106.519531 690.554688 104.898438 690.355469 103.285156 690.113281 C 101.667969 689.875 100.058594 689.597656 98.457031 689.277344 C 96.855469 688.957031 95.261719 688.601562 93.675781 688.203125 C 92.089844 687.808594 90.519531 687.371094 88.953125 686.898438 C 87.390625 686.425781 85.839844 685.910156 84.300781 685.363281 C 82.765625 684.8125 81.242188 684.222656 79.730469 683.597656 C 78.222656 682.972656 76.730469 682.3125 75.253906 681.613281 C 73.777344 680.914062 72.316406 680.183594 70.875 679.410156 C 69.433594 678.640625 68.015625 677.835938 66.613281 676.996094 C 65.210938 676.160156 63.832031 675.285156 62.472656 674.378906 C 61.117188 673.46875 59.78125 672.53125 58.46875 671.558594 C 57.15625 670.585938 55.867188 669.582031 54.605469 668.542969 C 53.34375 667.507812 52.105469 666.441406 50.894531 665.34375 C 49.6875 664.25 48.503906 663.121094 47.347656 661.96875 C 46.191406 660.8125 45.066406 659.632812 43.96875 658.421875 C 42.871094 657.210938 41.804688 655.976562 40.769531 654.710938 C 39.734375 653.449219 38.730469 652.164062 37.753906 650.851562 C 36.78125 649.539062 35.84375 648.203125 34.933594 646.847656 C 34.027344 645.488281 33.152344 644.109375 32.3125 642.707031 C 31.472656 641.308594 30.667969 639.886719 29.898438 638.449219 C 29.128906 637.007812 28.394531 635.546875 27.695312 634.074219 C 26.996094 632.597656 26.335938 631.105469 25.710938 629.59375 C 25.085938 628.085938 24.496094 626.5625 23.945312 625.027344 C 23.398438 623.488281 22.882812 621.9375 22.410156 620.375 C 21.9375 618.8125 21.5 617.238281 21.101562 615.65625 C 20.707031 614.070312 20.347656 612.476562 20.03125 610.875 C 19.710938 609.273438 19.433594 607.664062 19.191406 606.050781 C 18.953125 604.433594 18.753906 602.816406 18.59375 601.1875 C 18.433594 599.5625 18.3125 597.9375 18.230469 596.304688 C 18.152344 594.671875 18.113281 593.042969 18.113281 591.410156 L 18.113281 391.835938 L 350.839844 391.835938 L 350.839844 425.097656 L 417.382812 425.097656 Z M 417.382812 391.835938 " fill-opacity="1" fill-rule="nonzero"/></g></svg>