<?xml version="1.0" ?><svg id="Layer_1" style="enable-background:new 0 0 1024 1024;" version="1.1" viewBox="0 0 1024 1024" xml:space="preserve" xmlns="http://www.w3.org/2000/svg" xmlns:xlink="http://www.w3.org/1999/xlink"><g id="XMLID_69_"><path fill="#666666" d="M623.9,168.2c0,61-49.6,110.6-110.6,110.6c-61,0-110.6-49.6-110.6-110.6c0-61,49.6-110.6,110.6-110.6   C574.3,57.7,623.9,107.3,623.9,168.2z" id="XMLID_160_"/><path fill="#666666" d="M675.5,432.3v271h-64v225.6c0,20.6-15.1,37.4-33.7,37.4H450c-19.6,0-37.5-17.8-37.5-37.4V703.3h-64v-271   c0-67.3,54.7-122,122-122h83C620.8,310.3,675.5,365.1,675.5,432.3z" id="XMLID_159_"/></g><g id="XMLID_1_"/><g id="XMLID_2_"/><g id="XMLID_3_"/><g id="XMLID_4_"/><g id="XMLID_5_"/></svg>